<?xml version="1.0" encoding="UTF-8" standalone="no"?>
<!DOCTYPE svg PUBLIC "-//W3C//DTD SVG 1.1//EN"
 "http://www.w3.org/Graphics/SVG/1.1/DTD/svg11.dtd">
<!-- Generated by graphviz version 2.36.0 (20140111.2315)
 -->
<!-- Title: G Pages: 1 -->
<svg width="1920pt" height="829pt"
 viewBox="0.00 0.00 1920.00 828.51" xmlns="http://www.w3.org/2000/svg" xmlns:xlink="http://www.w3.org/1999/xlink">
<g id="graph0" class="graph" transform="scale(1 1) rotate(0) translate(4 824.511)">
<title>G</title>
<polygon fill="white" stroke="none" points="-4,4 -4,-824.511 1916,-824.511 1916,4 -4,4"/>
<g id="clust1" class="cluster"><title>cluster_Global</title>
<path fill="none" stroke="gray" d="M141,-130.511C141,-130.511 1892,-130.511 1892,-130.511 1898,-130.511 1904,-136.511 1904,-142.511 1904,-142.511 1904,-800.511 1904,-800.511 1904,-806.511 1898,-812.511 1892,-812.511 1892,-812.511 141,-812.511 141,-812.511 135,-812.511 129,-806.511 129,-800.511 129,-800.511 129,-142.511 129,-142.511 129,-136.511 135,-130.511 141,-130.511"/>
<text text-anchor="middle" x="1016.5" y="-799.711" font-family="Times,serif" font-size="11.00" fill="gray">Global</text>
</g>
<g id="clust2" class="cluster"><title>cluster_\com</title>
<path fill="none" stroke="gray" d="M149,-138.511C149,-138.511 1884,-138.511 1884,-138.511 1890,-138.511 1896,-144.511 1896,-150.511 1896,-150.511 1896,-772.511 1896,-772.511 1896,-778.511 1890,-784.511 1884,-784.511 1884,-784.511 149,-784.511 149,-784.511 143,-784.511 137,-778.511 137,-772.511 137,-772.511 137,-150.511 137,-150.511 137,-144.511 143,-138.511 149,-138.511"/>
<text text-anchor="middle" x="1016.5" y="-771.711" font-family="Times,serif" font-size="11.00" fill="gray">com</text>
</g>
<g id="clust3" class="cluster"><title>cluster_\com\xcitestudios</title>
<path fill="none" stroke="gray" d="M157,-146.511C157,-146.511 1876,-146.511 1876,-146.511 1882,-146.511 1888,-152.511 1888,-158.511 1888,-158.511 1888,-744.511 1888,-744.511 1888,-750.511 1882,-756.511 1876,-756.511 1876,-756.511 157,-756.511 157,-756.511 151,-756.511 145,-750.511 145,-744.511 145,-744.511 145,-158.511 145,-158.511 145,-152.511 151,-146.511 157,-146.511"/>
<text text-anchor="middle" x="1016.5" y="-743.711" font-family="Times,serif" font-size="11.00" fill="gray">xcitestudios</text>
</g>
<g id="clust4" class="cluster"><title>cluster_\com\xcitestudios\Network</title>
<path fill="none" stroke="gray" d="M165,-154.511C165,-154.511 1868,-154.511 1868,-154.511 1874,-154.511 1880,-160.511 1880,-166.511 1880,-166.511 1880,-716.511 1880,-716.511 1880,-722.511 1874,-728.511 1868,-728.511 1868,-728.511 165,-728.511 165,-728.511 159,-728.511 153,-722.511 153,-716.511 153,-716.511 153,-166.511 153,-166.511 153,-160.511 159,-154.511 165,-154.511"/>
<text text-anchor="middle" x="1016.5" y="-715.711" font-family="Times,serif" font-size="11.00" fill="gray">Network</text>
</g>
<g id="clust5" class="cluster"><title>cluster_\com\xcitestudios\Network\Email</title>
<path fill="none" stroke="gray" d="M735,-412.511C735,-412.511 1794,-412.511 1794,-412.511 1800,-412.511 1806,-418.511 1806,-424.511 1806,-424.511 1806,-688.511 1806,-688.511 1806,-694.511 1800,-700.511 1794,-700.511 1794,-700.511 735,-700.511 735,-700.511 729,-700.511 723,-694.511 723,-688.511 723,-688.511 723,-424.511 723,-424.511 723,-418.511 729,-412.511 735,-412.511"/>
<text text-anchor="middle" x="1264.5" y="-687.711" font-family="Times,serif" font-size="11.00" fill="gray">Email</text>
</g>
<g id="clust6" class="cluster"><title>cluster_\com\xcitestudios\Network\Email\Interfaces</title>
<path fill="none" stroke="gray" d="M743,-420.511C743,-420.511 1401,-420.511 1401,-420.511 1407,-420.511 1413,-426.511 1413,-432.511 1413,-432.511 1413,-588.511 1413,-588.511 1413,-594.511 1407,-600.511 1401,-600.511 1401,-600.511 743,-600.511 743,-600.511 737,-600.511 731,-594.511 731,-588.511 731,-588.511 731,-432.511 731,-432.511 731,-426.511 737,-420.511 743,-420.511"/>
<text text-anchor="middle" x="1072" y="-587.711" font-family="Times,serif" font-size="11.00" fill="gray">Interfaces</text>
</g>
<g id="clust7" class="cluster"><title>cluster_\com\xcitestudios\Network\Server</title>
<path fill="none" stroke="gray" d="M173,-162.511C173,-162.511 1860,-162.511 1860,-162.511 1866,-162.511 1872,-168.511 1872,-174.511 1872,-174.511 1872,-392.511 1872,-392.511 1872,-398.511 1866,-404.511 1860,-404.511 1860,-404.511 173,-404.511 173,-404.511 167,-404.511 161,-398.511 161,-392.511 161,-392.511 161,-174.511 161,-174.511 161,-168.511 167,-162.511 173,-162.511"/>
<text text-anchor="middle" x="1016.5" y="-391.711" font-family="Times,serif" font-size="11.00" fill="gray">Server</text>
</g>
<g id="clust8" class="cluster"><title>cluster_\com\xcitestudios\Network\Server\Configuration</title>
<path fill="none" stroke="gray" d="M181,-170.511C181,-170.511 1852,-170.511 1852,-170.511 1858,-170.511 1864,-176.511 1864,-182.511 1864,-182.511 1864,-364.511 1864,-364.511 1864,-370.511 1858,-376.511 1852,-376.511 1852,-376.511 181,-376.511 181,-376.511 175,-376.511 169,-370.511 169,-364.511 169,-364.511 169,-182.511 169,-182.511 169,-176.511 175,-170.511 181,-170.511"/>
<text text-anchor="middle" x="1016.5" y="-363.711" font-family="Times,serif" font-size="11.00" fill="gray">Configuration</text>
</g>
<g id="clust9" class="cluster"><title>cluster_\com\xcitestudios\Network\Server\Configuration\Interfaces</title>
<path fill="none" stroke="gray" d="M189,-222.511C189,-222.511 1492,-222.511 1492,-222.511 1498,-222.511 1504,-228.511 1504,-234.511 1504,-234.511 1504,-336.511 1504,-336.511 1504,-342.511 1498,-348.511 1492,-348.511 1492,-348.511 189,-348.511 189,-348.511 183,-348.511 177,-342.511 177,-336.511 177,-336.511 177,-234.511 177,-234.511 177,-228.511 183,-222.511 189,-222.511"/>
<text text-anchor="middle" x="840.5" y="-335.711" font-family="Times,serif" font-size="11.00" fill="gray">Interfaces</text>
</g>
<!-- \\com\\xcitestudios\\Network\\Email\\Interfaces\\ContactInterface -->
<g id="node1" class="node"><title>\\com\\xcitestudios\\Network\\Email\\Interfaces\\ContactInterface</title>
<polygon fill="none" stroke="black" points="884.5,-572.511 759.5,-572.511 759.5,-536.511 884.5,-536.511 884.5,-572.511"/>
<text text-anchor="middle" x="822" y="-551.711" font-family="Courier,monospace" font-size="11.00">ContactInterface</text>
</g>
<!-- \\com\\xcitestudios\\Network\\Email\\Interfaces\\ContactSerializableInterface -->
<g id="node2" class="node"><title>\\com\\xcitestudios\\Network\\Email\\Interfaces\\ContactSerializableInterface</title>
<polygon fill="none" stroke="black" points="1385,-572.511 1179,-572.511 1179,-536.511 1385,-536.511 1385,-572.511"/>
<text text-anchor="middle" x="1282" y="-551.711" font-family="Courier,monospace" font-size="11.00">ContactSerializableInterface</text>
</g>
<!-- \\com\\xcitestudios\\Network\\Email\\Interfaces\\ContactSerializableInterface&#45;&gt;\\com\\xcitestudios\\Network\\Email\\Interfaces\\ContactInterface -->
<g id="edge17" class="edge"><title>\\com\\xcitestudios\\Network\\Email\\Interfaces\\ContactSerializableInterface&#45;&gt;\\com\\xcitestudios\\Network\\Email\\Interfaces\\ContactInterface</title>
<path fill="none" stroke="black" d="M1178.79,-554.511C1092.5,-554.511 971.134,-554.511 894.805,-554.511"/>
<polygon fill="none" stroke="black" points="894.803,-551.011 884.803,-554.511 894.803,-558.011 894.803,-551.011"/>
</g>
<!-- \\com\\xcitestudios\\Generic\\Data\\Manipulation\\Interfaces\\SerializationInterface -->
<g id="node20" class="node"><title>\\com\\xcitestudios\\Generic\\Data\\Manipulation\\Interfaces\\SerializationInterface</title>
<ellipse fill="none" stroke="black" cx="288" cy="-104.511" rx="287.849" ry="18"/>
<text text-anchor="middle" x="288" y="-100.811" font-family="Times,serif" font-size="14.00" fill="gray">\com\xcitestudios\Generic\Data\Manipulation\Interfaces\SerializationInterface</text>
</g>
<!-- \\com\\xcitestudios\\Network\\Email\\Interfaces\\ContactSerializableInterface&#45;&gt;\\com\\xcitestudios\\Generic\\Data\\Manipulation\\Interfaces\\SerializationInterface -->
<g id="edge18" class="edge"><title>\\com\\xcitestudios\\Network\\Email\\Interfaces\\ContactSerializableInterface&#45;&gt;\\com\\xcitestudios\\Generic\\Data\\Manipulation\\Interfaces\\SerializationInterface</title>
<path fill="none" stroke="black" d="M1178.93,-564.847C1139.91,-563.332 1097.71,-554.257 1068,-527.511 964.159,-434.039 1100.62,-314.113 996,-221.511 938.079,-170.243 896.244,-227.381 823,-202.511"/>
</g>
<!-- \\com\\xcitestudios\\Network\\Email\\Interfaces\\EmailBodyPartInterface -->
<g id="node3" class="node"><title>\\com\\xcitestudios\\Network\\Email\\Interfaces\\EmailBodyPartInterface</title>
<polygon fill="none" stroke="black" points="904.5,-518.511 739.5,-518.511 739.5,-482.511 904.5,-482.511 904.5,-518.511"/>
<text text-anchor="middle" x="822" y="-497.711" font-family="Courier,monospace" font-size="11.00">EmailBodyPartInterface</text>
</g>
<!-- \\com\\xcitestudios\\Network\\Email\\Interfaces\\EmailBodyPartSerializableInterface -->
<g id="node4" class="node"><title>\\com\\xcitestudios\\Network\\Email\\Interfaces\\EmailBodyPartSerializableInterface</title>
<polygon fill="none" stroke="black" points="1405,-518.511 1159,-518.511 1159,-482.511 1405,-482.511 1405,-518.511"/>
<text text-anchor="middle" x="1282" y="-497.711" font-family="Courier,monospace" font-size="11.00">EmailBodyPartSerializableInterface</text>
</g>
<!-- \\com\\xcitestudios\\Network\\Email\\Interfaces\\EmailBodyPartSerializableInterface&#45;&gt;\\com\\xcitestudios\\Network\\Email\\Interfaces\\EmailBodyPartInterface -->
<g id="edge19" class="edge"><title>\\com\\xcitestudios\\Network\\Email\\Interfaces\\EmailBodyPartSerializableInterface&#45;&gt;\\com\\xcitestudios\\Network\\Email\\Interfaces\\EmailBodyPartInterface</title>
<path fill="none" stroke="black" d="M1158.87,-500.511C1082.21,-500.511 984.962,-500.511 914.859,-500.511"/>
<polygon fill="none" stroke="black" points="914.719,-497.011 904.719,-500.511 914.719,-504.011 914.719,-497.011"/>
</g>
<!-- \\com\\xcitestudios\\Network\\Email\\Interfaces\\EmailBodyPartSerializableInterface&#45;&gt;\\com\\xcitestudios\\Generic\\Data\\Manipulation\\Interfaces\\SerializationInterface -->
<g id="edge20" class="edge"><title>\\com\\xcitestudios\\Network\\Email\\Interfaces\\EmailBodyPartSerializableInterface&#45;&gt;\\com\\xcitestudios\\Generic\\Data\\Manipulation\\Interfaces\\SerializationInterface</title>
<path fill="none" stroke="black" d="M1158.92,-508.554C1126.21,-504.853 1093.03,-494.996 1068,-473.511 979.611,-397.647 1085.02,-296.634 996,-221.511 936.886,-171.624 896.244,-227.381 823,-202.511"/>
</g>
<!-- \\com\\xcitestudios\\Network\\Email\\Interfaces\\EmailInterface -->
<g id="node5" class="node"><title>\\com\\xcitestudios\\Network\\Email\\Interfaces\\EmailInterface</title>
<polygon fill="none" stroke="black" points="877.5,-464.511 766.5,-464.511 766.5,-428.511 877.5,-428.511 877.5,-464.511"/>
<text text-anchor="middle" x="822" y="-443.711" font-family="Courier,monospace" font-size="11.00">EmailInterface</text>
</g>
<!-- \\com\\xcitestudios\\Network\\Email\\Interfaces\\EmailSerializableInterface -->
<g id="node6" class="node"><title>\\com\\xcitestudios\\Network\\Email\\Interfaces\\EmailSerializableInterface</title>
<polygon fill="none" stroke="black" points="1378,-464.511 1186,-464.511 1186,-428.511 1378,-428.511 1378,-464.511"/>
<text text-anchor="middle" x="1282" y="-443.711" font-family="Courier,monospace" font-size="11.00">EmailSerializableInterface</text>
</g>
<!-- \\com\\xcitestudios\\Network\\Email\\Interfaces\\EmailSerializableInterface&#45;&gt;\\com\\xcitestudios\\Network\\Email\\Interfaces\\EmailInterface -->
<g id="edge21" class="edge"><title>\\com\\xcitestudios\\Network\\Email\\Interfaces\\EmailSerializableInterface&#45;&gt;\\com\\xcitestudios\\Network\\Email\\Interfaces\\EmailInterface</title>
<path fill="none" stroke="black" d="M1185.82,-446.511C1096.53,-446.511 965.415,-446.511 887.677,-446.511"/>
<polygon fill="none" stroke="black" points="887.537,-443.011 877.537,-446.511 887.537,-450.011 887.537,-443.011"/>
</g>
<!-- \\com\\xcitestudios\\Network\\Email\\Interfaces\\EmailSerializableInterface&#45;&gt;\\com\\xcitestudios\\Generic\\Data\\Manipulation\\Interfaces\\SerializationInterface -->
<g id="edge22" class="edge"><title>\\com\\xcitestudios\\Network\\Email\\Interfaces\\EmailSerializableInterface&#45;&gt;\\com\\xcitestudios\\Generic\\Data\\Manipulation\\Interfaces\\SerializationInterface</title>
<path fill="none" stroke="black" d="M1211.18,-428.396C1166.1,-413.863 1108.52,-389.656 1068,-352.511 1019.03,-307.619 1051.25,-258.408 996,-221.511 931.675,-178.552 896.244,-227.381 823,-202.511"/>
</g>
<!-- \\com\\xcitestudios\\Network\\Email\\Contact -->
<g id="node7" class="node"><title>\\com\\xcitestudios\\Network\\Email\\Contact</title>
<polygon fill="none" stroke="black" points="1744,-672.511 1680,-672.511 1680,-636.511 1744,-636.511 1744,-672.511"/>
<text text-anchor="middle" x="1712" y="-651.711" font-family="Courier,monospace" font-size="11.00">Contact</text>
</g>
<!-- \\com\\xcitestudios\\Network\\Email\\Contact&#45;&gt;\\com\\xcitestudios\\Network\\Email\\Interfaces\\ContactSerializableInterface -->
<g id="edge1" class="edge"><title>\\com\\xcitestudios\\Network\\Email\\Contact&#45;&gt;\\com\\xcitestudios\\Network\\Email\\Interfaces\\ContactSerializableInterface</title>
<path fill="none" stroke="black" stroke-dasharray="1,5" d="M1679.92,-649.235C1650.87,-644.165 1606.35,-636.034 1568,-627.511 1496.36,-611.589 1415.35,-590.543 1358.07,-575.141"/>
<polygon fill="none" stroke="black" points="1358.93,-571.75 1348.37,-572.526 1357.11,-578.509 1358.93,-571.75"/>
</g>
<!-- \\JsonSerializable -->
<g id="node18" class="node"><title>\\JsonSerializable</title>
<ellipse fill="none" stroke="black" cx="822" cy="-104.511" rx="70.3881" ry="18"/>
<text text-anchor="middle" x="822" y="-100.811" font-family="Times,serif" font-size="14.00" fill="gray">\JsonSerializable</text>
</g>
<!-- \\com\\xcitestudios\\Network\\Email\\Contact&#45;&gt;\\JsonSerializable -->
<g id="edge2" class="edge"><title>\\com\\xcitestudios\\Network\\Email\\Contact&#45;&gt;\\JsonSerializable</title>
<path fill="none" stroke="black" stroke-dasharray="1,5" d="M1679.94,-658.181C1647.23,-660.156 1596.58,-657.514 1568,-627.511 1425.33,-477.727 1653.07,-309.919 1504,-166.511 1432.86,-98.0785 1371.85,-187.511 1283,-144.511"/>
</g>
<!-- \\com\\xcitestudios\\Network\\Email\\ContactCollection -->
<g id="node8" class="node"><title>\\com\\xcitestudios\\Network\\Email\\ContactCollection</title>
<polygon fill="none" stroke="black" points="1777.5,-510.511 1646.5,-510.511 1646.5,-474.511 1777.5,-474.511 1777.5,-510.511"/>
<text text-anchor="middle" x="1712" y="-489.711" font-family="Courier,monospace" font-size="11.00">ContactCollection</text>
</g>
<!-- \\com\\xcitestudios\\Network\\Email\\ContactCollection&#45;&gt;\\JsonSerializable -->
<g id="edge5" class="edge"><title>\\com\\xcitestudios\\Network\\Email\\ContactCollection&#45;&gt;\\JsonSerializable</title>
<path fill="none" stroke="black" stroke-dasharray="1,5" d="M1281,-106.511C1214.13,-78.7963 1010.72,-89.4911 898.805,-97.9801"/>
<polygon fill="none" stroke="black" points="898.299,-94.5086 888.598,-98.7675 898.838,-101.488 898.299,-94.5086"/>
</g>
<!-- \\Doctrine\\Common\\Collections\\ArrayCollection -->
<g id="node19" class="node"><title>\\Doctrine\\Common\\Collections\\ArrayCollection</title>
<ellipse fill="none" stroke="black" cx="1282" cy="-60.5109" rx="181.968" ry="18"/>
<text text-anchor="middle" x="1282" y="-56.8109" font-family="Times,serif" font-size="14.00" fill="gray">\Doctrine\Common\Collections\ArrayCollection</text>
</g>
<!-- \\com\\xcitestudios\\Network\\Email\\ContactCollection&#45;&gt;\\Doctrine\\Common\\Collections\\ArrayCollection -->
<g id="edge3" class="edge"><title>\\com\\xcitestudios\\Network\\Email\\ContactCollection&#45;&gt;\\Doctrine\\Common\\Collections\\ArrayCollection</title>
<path fill="none" stroke="black" d="M1646.46,-495.76C1618.76,-493.647 1588.2,-486.046 1568,-465.511 1450.06,-345.587 1624.48,-209.882 1504,-92.5109 1493.72,-82.4971 1481.79,-74.7102 1468.91,-68.7154"/>
<polygon fill="none" stroke="black" points="1469.94,-65.3511 1459.37,-64.6608 1467.21,-71.7935 1469.94,-65.3511"/>
</g>
<!-- \\com\\xcitestudios\\Network\\Email\\ContactCollection&#45;&gt;\\com\\xcitestudios\\Generic\\Data\\Manipulation\\Interfaces\\SerializationInterface -->
<g id="edge4" class="edge"><title>\\com\\xcitestudios\\Network\\Email\\ContactCollection&#45;&gt;\\com\\xcitestudios\\Generic\\Data\\Manipulation\\Interfaces\\SerializationInterface</title>
<path fill="none" stroke="black" stroke-dasharray="1,5" d="M1646.27,-495.555C1618.71,-493.368 1588.3,-485.766 1568,-465.511 1460.7,-358.442 1615.42,-233.29 1504,-130.511 1431.38,-63.5202 1374.27,-144.339 1283,-106.511"/>
<path fill="none" stroke="black" stroke-dasharray="1,5" d="M1281,-106.511C1237.1,-88.3159 1115.22,-92.8923 1068,-87.5109 1035.9,-83.8523 1028.06,-81.497 996,-77.5109 919.24,-67.9671 900.287,-55.3565 823,-58.5109"/>
</g>
<!-- \\com\\xcitestudios\\Network\\Email\\EmailBodyPart -->
<g id="node9" class="node"><title>\\com\\xcitestudios\\Network\\Email\\EmailBodyPart</title>
<polygon fill="none" stroke="black" points="1764,-618.511 1660,-618.511 1660,-582.511 1764,-582.511 1764,-618.511"/>
<text text-anchor="middle" x="1712" y="-597.711" font-family="Courier,monospace" font-size="11.00">EmailBodyPart</text>
</g>
<!-- \\com\\xcitestudios\\Network\\Email\\EmailBodyPart&#45;&gt;\\com\\xcitestudios\\Network\\Email\\Interfaces\\EmailBodyPartSerializableInterface -->
<g id="edge6" class="edge"><title>\\com\\xcitestudios\\Network\\Email\\EmailBodyPart&#45;&gt;\\com\\xcitestudios\\Network\\Email\\Interfaces\\EmailBodyPartSerializableInterface</title>
<path fill="none" stroke="black" stroke-dasharray="1,5" d="M1659.79,-596.31C1631.8,-592.681 1597.03,-585.952 1568,-573.511 1535.8,-559.712 1536.63,-540.256 1504,-527.511 1476.26,-516.676 1445.2,-509.917 1415.34,-505.763"/>
<polygon fill="none" stroke="black" points="1415.63,-502.271 1405.26,-504.451 1414.72,-509.213 1415.63,-502.271"/>
</g>
<!-- \\com\\xcitestudios\\Network\\Email\\EmailBodyPart&#45;&gt;\\JsonSerializable -->
<g id="edge7" class="edge"><title>\\com\\xcitestudios\\Network\\Email\\EmailBodyPart&#45;&gt;\\JsonSerializable</title>
<path fill="none" stroke="black" stroke-dasharray="1,5" d="M1659.89,-604.507C1629.08,-603.978 1591.39,-597.633 1568,-573.511 1440.52,-442.063 1637.1,-292.265 1504,-166.511 1432.25,-98.7223 1371.85,-187.511 1283,-144.511"/>
</g>
<!-- \\com\\xcitestudios\\Network\\Email\\EmailBodyPartCollection -->
<g id="node10" class="node"><title>\\com\\xcitestudios\\Network\\Email\\EmailBodyPartCollection</title>
<polygon fill="none" stroke="black" points="1798,-456.511 1626,-456.511 1626,-420.511 1798,-420.511 1798,-456.511"/>
<text text-anchor="middle" x="1712" y="-435.711" font-family="Courier,monospace" font-size="11.00">EmailBodyPartCollection</text>
</g>
<!-- \\com\\xcitestudios\\Network\\Email\\EmailBodyPartCollection&#45;&gt;\\JsonSerializable -->
<g id="edge10" class="edge"><title>\\com\\xcitestudios\\Network\\Email\\EmailBodyPartCollection&#45;&gt;\\JsonSerializable</title>
<path fill="none" stroke="black" stroke-dasharray="1,5" d="M1281,-14.5109C1190.69,15.1037 1159,-6.08793 1068,-33.5109 1033.15,-44.0114 1030.31,-60.3859 996,-72.5109 964.426,-83.6677 928.167,-91.1375 897.025,-96.0321"/>
<polygon fill="none" stroke="black" points="896.471,-92.576 887.107,-97.5321 897.518,-99.4973 896.471,-92.576"/>
</g>
<!-- \\com\\xcitestudios\\Network\\Email\\EmailBodyPartCollection&#45;&gt;\\Doctrine\\Common\\Collections\\ArrayCollection -->
<g id="edge8" class="edge"><title>\\com\\xcitestudios\\Network\\Email\\EmailBodyPartCollection&#45;&gt;\\Doctrine\\Common\\Collections\\ArrayCollection</title>
<path fill="none" stroke="black" d="M1628.98,-420.485C1606.36,-411.834 1583.74,-399.125 1568,-380.511 1483.32,-280.398 1600.12,-181.693 1504,-92.5109 1493.26,-82.5487 1480.88,-74.83 1467.57,-68.9097"/>
<polygon fill="none" stroke="black" points="1468.8,-65.6314 1458.22,-65.0928 1466.16,-72.1123 1468.8,-65.6314"/>
</g>
<!-- \\com\\xcitestudios\\Network\\Email\\EmailBodyPartCollection&#45;&gt;\\com\\xcitestudios\\Generic\\Data\\Manipulation\\Interfaces\\SerializationInterface -->
<g id="edge9" class="edge"><title>\\com\\xcitestudios\\Network\\Email\\EmailBodyPartCollection&#45;&gt;\\com\\xcitestudios\\Generic\\Data\\Manipulation\\Interfaces\\SerializationInterface</title>
<path fill="none" stroke="black" stroke-dasharray="1,5" d="M1627.44,-420.406C1605.19,-411.775 1583.15,-399.096 1568,-380.511 1468.91,-258.958 1620.12,-138.917 1504,-33.5109 1431,32.751 1376.68,-45.2291 1283,-14.5109"/>
<path fill="none" stroke="black" stroke-dasharray="1,5" d="M1281,-14.5109C1190.69,15.1037 1162.61,-24.4644 1068,-33.5109 959.043,-43.9291 932.363,-54.0473 823,-58.5109"/>
<path fill="none" stroke="black" stroke-dasharray="1,5" d="M821,-58.5109C692.232,-63.7664 546.437,-76.8786 440.078,-87.765"/>
<polygon fill="none" stroke="black" points="439.5,-84.306 429.91,-88.8112 440.216,-91.2692 439.5,-84.306"/>
</g>
<!-- \\com\\xcitestudios\\Network\\Email\\EmailSerializable -->
<g id="node11" class="node"><title>\\com\\xcitestudios\\Network\\Email\\EmailSerializable</title>
<polygon fill="none" stroke="black" points="1777.5,-564.511 1646.5,-564.511 1646.5,-528.511 1777.5,-528.511 1777.5,-564.511"/>
<text text-anchor="middle" x="1712" y="-543.711" font-family="Courier,monospace" font-size="11.00">EmailSerializable</text>
</g>
<!-- \\com\\xcitestudios\\Network\\Email\\EmailSerializable&#45;&gt;\\com\\xcitestudios\\Network\\Email\\Interfaces\\EmailSerializableInterface -->
<g id="edge11" class="edge"><title>\\com\\xcitestudios\\Network\\Email\\EmailSerializable&#45;&gt;\\com\\xcitestudios\\Network\\Email\\Interfaces\\EmailSerializableInterface</title>
<path fill="none" stroke="black" stroke-dasharray="1,5" d="M1646.24,-540.375C1621.09,-536.442 1592.5,-530.011 1568,-519.511 1535.8,-505.712 1536.63,-486.256 1504,-473.511 1467.64,-459.31 1425.59,-452.111 1387.98,-448.6"/>
<polygon fill="none" stroke="black" points="1388.27,-445.113 1378.01,-447.745 1387.67,-452.087 1388.27,-445.113"/>
</g>
<!-- \\com\\xcitestudios\\Network\\Email\\EmailSerializable&#45;&gt;\\JsonSerializable -->
<g id="edge12" class="edge"><title>\\com\\xcitestudios\\Network\\Email\\EmailSerializable&#45;&gt;\\JsonSerializable</title>
<path fill="none" stroke="black" stroke-dasharray="1,5" d="M1646.18,-549.643C1618.6,-547.474 1588.2,-539.861 1568,-519.511 1455.66,-406.357 1621.17,-274.65 1504,-166.511 1431.46,-99.5658 1371.85,-187.511 1283,-144.511"/>
<path fill="none" stroke="black" stroke-dasharray="1,5" d="M1281,-144.511C1264.15,-136.354 1025.87,-118.66 899.872,-109.796"/>
<polygon fill="none" stroke="black" points="900.109,-106.304 889.889,-109.095 899.619,-113.287 900.109,-106.304"/>
</g>
<!-- \\com\\xcitestudios\\Network\\Server\\Configuration\\Interfaces\\ServerConfigurationInterface -->
<g id="node12" class="node"><title>\\com\\xcitestudios\\Network\\Server\\Configuration\\Interfaces\\ServerConfigurationInterface</title>
<polygon fill="none" stroke="black" points="391,-293.511 185,-293.511 185,-257.511 391,-257.511 391,-293.511"/>
<text text-anchor="middle" x="288" y="-272.711" font-family="Courier,monospace" font-size="11.00">ServerConfigurationInterface</text>
</g>
<!-- \\com\\xcitestudios\\Network\\Server\\Configuration\\Interfaces\\ServerConfigurationSerializableInterface -->
<g id="node13" class="node"><title>\\com\\xcitestudios\\Network\\Server\\Configuration\\Interfaces\\ServerConfigurationSerializableInterface</title>
<polygon fill="none" stroke="black" points="965.5,-266.511 678.5,-266.511 678.5,-230.511 965.5,-230.511 965.5,-266.511"/>
<text text-anchor="middle" x="822" y="-245.711" font-family="Courier,monospace" font-size="11.00">ServerConfigurationSerializableInterface</text>
</g>
<!-- \\com\\xcitestudios\\Network\\Server\\Configuration\\Interfaces\\ServerConfigurationSerializableInterface&#45;&gt;\\com\\xcitestudios\\Network\\Server\\Configuration\\Interfaces\\ServerConfigurationInterface -->
<g id="edge23" class="edge"><title>\\com\\xcitestudios\\Network\\Server\\Configuration\\Interfaces\\ServerConfigurationSerializableInterface&#45;&gt;\\com\\xcitestudios\\Network\\Server\\Configuration\\Interfaces\\ServerConfigurationInterface</title>
<path fill="none" stroke="black" d="M678.434,-255.746C591.509,-260.158 481.989,-265.716 401.249,-269.814"/>
<polygon fill="none" stroke="black" points="400.861,-266.329 391.051,-270.332 401.216,-273.32 400.861,-266.329"/>
</g>
<!-- \\com\\xcitestudios\\Network\\Server\\Configuration\\Interfaces\\ServerConfigurationSerializableInterface&#45;&gt;\\com\\xcitestudios\\Generic\\Data\\Manipulation\\Interfaces\\SerializationInterface -->
<g id="edge24" class="edge"><title>\\com\\xcitestudios\\Network\\Server\\Configuration\\Interfaces\\ServerConfigurationSerializableInterface&#45;&gt;\\com\\xcitestudios\\Generic\\Data\\Manipulation\\Interfaces\\SerializationInterface</title>
<path fill="none" stroke="black" d="M712.138,-230.427C690.775,-226.301 668.606,-221.612 648,-216.511 541.317,-190.103 419.712,-149.999 348.935,-125.628"/>
<polygon fill="none" stroke="black" points="349.887,-122.254 339.292,-122.297 347.601,-128.87 349.887,-122.254"/>
</g>
<!-- \\com\\xcitestudios\\Network\\Server\\Configuration\\Interfaces\\UsernameAuthenticatedServerConfigurationInterface -->
<g id="node14" class="node"><title>\\com\\xcitestudios\\Network\\Server\\Configuration\\Interfaces\\UsernameAuthenticatedServerConfigurationInterface</title>
<polygon fill="none" stroke="black" points="995.5,-320.511 648.5,-320.511 648.5,-284.511 995.5,-284.511 995.5,-320.511"/>
<text text-anchor="middle" x="822" y="-299.711" font-family="Courier,monospace" font-size="11.00">UsernameAuthenticatedServerConfigurationInterface</text>
</g>
<!-- \\com\\xcitestudios\\Network\\Server\\Configuration\\Interfaces\\UsernameAuthenticatedServerConfigurationInterface&#45;&gt;\\com\\xcitestudios\\Network\\Server\\Configuration\\Interfaces\\ServerConfigurationInterface -->
<g id="edge25" class="edge"><title>\\com\\xcitestudios\\Network\\Server\\Configuration\\Interfaces\\UsernameAuthenticatedServerConfigurationInterface&#45;&gt;\\com\\xcitestudios\\Network\\Server\\Configuration\\Interfaces\\ServerConfigurationInterface</title>
<path fill="none" stroke="black" d="M648.275,-293.745C567.305,-289.635 473.133,-284.856 401.52,-281.221"/>
<polygon fill="none" stroke="black" points="401.287,-277.705 391.122,-280.694 400.932,-284.696 401.287,-277.705"/>
</g>
<!-- \\com\\xcitestudios\\Network\\Server\\Configuration\\Interfaces\\UsernameAuthenticatedServerConfigurationSerializableInterface -->
<g id="node15" class="node"><title>\\com\\xcitestudios\\Network\\Server\\Configuration\\Interfaces\\UsernameAuthenticatedServerConfigurationSerializableInterface</title>
<polygon fill="none" stroke="black" points="1496,-268.511 1068,-268.511 1068,-232.511 1496,-232.511 1496,-268.511"/>
<text text-anchor="middle" x="1282" y="-247.711" font-family="Courier,monospace" font-size="11.00">UsernameAuthenticatedServerConfigurationSerializableInterface</text>
</g>
<!-- \\com\\xcitestudios\\Network\\Server\\Configuration\\Interfaces\\UsernameAuthenticatedServerConfigurationSerializableInterface&#45;&gt;\\com\\xcitestudios\\Network\\Server\\Configuration\\Interfaces\\UsernameAuthenticatedServerConfigurationInterface -->
<g id="edge26" class="edge"><title>\\com\\xcitestudios\\Network\\Server\\Configuration\\Interfaces\\UsernameAuthenticatedServerConfigurationSerializableInterface&#45;&gt;\\com\\xcitestudios\\Network\\Server\\Configuration\\Interfaces\\UsernameAuthenticatedServerConfigurationInterface</title>
<path fill="none" stroke="black" d="M1122.42,-268.516C1080.31,-273.297 1034.67,-278.478 992.027,-283.32"/>
<polygon fill="none" stroke="black" points="991.372,-279.872 981.831,-284.478 992.162,-286.827 991.372,-279.872"/>
</g>
<!-- \\com\\xcitestudios\\Network\\Server\\Configuration\\Interfaces\\UsernameAuthenticatedServerConfigurationSerializableInterface&#45;&gt;\\com\\xcitestudios\\Generic\\Data\\Manipulation\\Interfaces\\SerializationInterface -->
<g id="edge27" class="edge"><title>\\com\\xcitestudios\\Network\\Server\\Configuration\\Interfaces\\UsernameAuthenticatedServerConfigurationSerializableInterface&#45;&gt;\\com\\xcitestudios\\Generic\\Data\\Manipulation\\Interfaces\\SerializationInterface</title>
<path fill="none" stroke="black" d="M1104.83,-232.491C977.233,-219.37 826.481,-203.693 823,-202.511"/>
<path fill="none" stroke="black" d="M821,-202.511C698.437,-160.895 553.646,-135.684 446.086,-121.276"/>
<polygon fill="none" stroke="black" points="446.496,-117.8 436.123,-119.958 445.577,-124.739 446.496,-117.8"/>
</g>
<!-- \\com\\xcitestudios\\Network\\Server\\Configuration\\ServerConfiguration -->
<g id="node16" class="node"><title>\\com\\xcitestudios\\Network\\Server\\Configuration\\ServerConfiguration</title>
<polygon fill="none" stroke="black" points="1354.5,-214.511 1209.5,-214.511 1209.5,-178.511 1354.5,-178.511 1354.5,-214.511"/>
<text text-anchor="middle" x="1282" y="-193.711" font-family="Courier,monospace" font-size="11.00">ServerConfiguration</text>
</g>
<!-- \\com\\xcitestudios\\Network\\Server\\Configuration\\ServerConfiguration&#45;&gt;\\com\\xcitestudios\\Network\\Server\\Configuration\\Interfaces\\ServerConfigurationSerializableInterface -->
<g id="edge13" class="edge"><title>\\com\\xcitestudios\\Network\\Server\\Configuration\\ServerConfiguration&#45;&gt;\\com\\xcitestudios\\Network\\Server\\Configuration\\Interfaces\\ServerConfigurationSerializableInterface</title>
<path fill="none" stroke="black" stroke-dasharray="1,5" d="M1209.48,-203.557C1168.12,-207.717 1115.1,-213.195 1068,-218.511 1038.25,-221.868 1006.5,-225.626 976.049,-229.318"/>
<polygon fill="none" stroke="black" points="975.282,-225.885 965.777,-230.566 976.126,-232.834 975.282,-225.885"/>
</g>
<!-- \\com\\xcitestudios\\Network\\Server\\Configuration\\ServerConfiguration&#45;&gt;\\JsonSerializable -->
<g id="edge14" class="edge"><title>\\com\\xcitestudios\\Network\\Server\\Configuration\\ServerConfiguration&#45;&gt;\\JsonSerializable</title>
<path fill="none" stroke="black" stroke-dasharray="1,5" d="M1209.38,-184.476C1167.99,-177.335 1114.97,-167.873 1068,-158.511 1005.26,-146.005 933.862,-130.074 884.395,-118.764"/>
<polygon fill="none" stroke="black" points="885.022,-115.317 874.493,-116.495 883.459,-122.14 885.022,-115.317"/>
</g>
<!-- \\com\\xcitestudios\\Network\\Server\\Configuration\\UsernameAuthenticatedServerConfiguration -->
<g id="node17" class="node"><title>\\com\\xcitestudios\\Network\\Server\\Configuration\\UsernameAuthenticatedServerConfiguration</title>
<polygon fill="none" stroke="black" points="1855.5,-241.511 1568.5,-241.511 1568.5,-205.511 1855.5,-205.511 1855.5,-241.511"/>
<text text-anchor="middle" x="1712" y="-220.711" font-family="Courier,monospace" font-size="11.00">UsernameAuthenticatedServerConfiguration</text>
</g>
<!-- \\com\\xcitestudios\\Network\\Server\\Configuration\\UsernameAuthenticatedServerConfiguration&#45;&gt;\\com\\xcitestudios\\Network\\Server\\Configuration\\Interfaces\\UsernameAuthenticatedServerConfigurationSerializableInterface -->
<g id="edge16" class="edge"><title>\\com\\xcitestudios\\Network\\Server\\Configuration\\UsernameAuthenticatedServerConfiguration&#45;&gt;\\com\\xcitestudios\\Network\\Server\\Configuration\\Interfaces\\UsernameAuthenticatedServerConfigurationSerializableInterface</title>
<path fill="none" stroke="black" stroke-dasharray="1,5" d="M1568.48,-232.501C1548.43,-233.766 1527.44,-235.091 1506.33,-236.423"/>
<polygon fill="none" stroke="black" points="1506.05,-232.933 1496.29,-237.056 1506.49,-239.919 1506.05,-232.933"/>
</g>
<!-- \\com\\xcitestudios\\Network\\Server\\Configuration\\UsernameAuthenticatedServerConfiguration&#45;&gt;\\com\\xcitestudios\\Network\\Server\\Configuration\\ServerConfiguration -->
<g id="edge15" class="edge"><title>\\com\\xcitestudios\\Network\\Server\\Configuration\\UsernameAuthenticatedServerConfiguration&#45;&gt;\\com\\xcitestudios\\Network\\Server\\Configuration\\ServerConfiguration</title>
<path fill="none" stroke="black" d="M1568.48,-214.52C1500.81,-210.251 1422.36,-205.302 1364.84,-201.674"/>
<polygon fill="none" stroke="black" points="1364.92,-198.172 1354.72,-201.035 1364.48,-205.158 1364.92,-198.172"/>
</g>
</g>
</svg>
